<?xml version="1.0" encoding="iso-8859-1"?>
<!-- Generator: Adobe Illustrator 19.0.0, SVG Export Plug-In . SVG Version: 6.00 Build 0)  -->
<svg version="1.1" id="Layer_1" xmlns="http://www.w3.org/2000/svg" xmlns:xlink="http://www.w3.org/1999/xlink" x="0px" y="0px"
	 viewBox="0 0 505 505" style="enable-background:new 0 0 505 505;" xml:space="preserve">
<circle style="fill:#FFD05B;" cx="252.5" cy="252.5" r="252.5"/>
<polygon style="fill:#FFFFFF;" points="121.1,383.9 121.1,362.2 149,362.2 149,342.5 121.1,342.5 121.1,308.6 149,308.6 149,288.9 
	121.1,288.9 121.1,255.1 149,255.1 149,235.4 121.1,235.4 121.1,201.5 149,201.5 149,181.8 121.1,181.8 121.1,148 149,148 
	149,128.3 121.1,128.3 121.1,101.4 101.4,101.4 101.4,403.6 403.6,403.6 403.6,383.9 "/>
<g>
	<rect x="367.4" y="125.4" style="fill:#FD8469;" width="36.2" height="233.2"/>
	<rect x="306.4" y="191.7" style="fill:#FD8469;" width="36.2" height="166.9"/>
	<rect x="245.4" y="239.2" style="fill:#FD8469;" width="36.2" height="119.4"/>
	<rect x="184.4" y="273.2" style="fill:#FD8469;" width="36.2" height="85.4"/>
</g>
<g>
</g>
<g>
</g>
<g>
</g>
<g>
</g>
<g>
</g>
<g>
</g>
<g>
</g>
<g>
</g>
<g>
</g>
<g>
</g>
<g>
</g>
<g>
</g>
<g>
</g>
<g>
</g>
<g>
</g>
</svg>
